<?xml version="1.0" encoding="UTF-8" standalone="no"?><!DOCTYPE svg PUBLIC "-//W3C//DTD SVG 1.1//EN" "http://www.w3.org/Graphics/SVG/1.1/DTD/svg11.dtd"><svg width="100%" height="100%" viewBox="0 0 942 928" version="1.1" xmlns="http://www.w3.org/2000/svg" xmlns:xlink="http://www.w3.org/1999/xlink" xml:space="preserve" xmlns:serif="http://www.serif.com/" style="fill-rule:evenodd;clip-rule:evenodd;stroke-linejoin:round;stroke-miterlimit:2;"><g><rect x="-290.134" y="-1644.58" width="1738.32" height="1738.32" style="fill:#fff;fill-rule:nonzero;"/></g><g><rect x="-351.395" y="-87.144" width="1738.32" height="1738.32" style="fill:#fff;fill-rule:nonzero;"/><g><path d="M941.476,448.806c0.645,18.616 0.022,37.109 -1.466,55.366l-92.291,20.923l-26.271,90.059l66.421,67.246c-16.932,32.362 -37.648,62.454 -61.474,89.907l-86.865,-37.224l-74.212,57.287l14.076,93.541c-32.281,15.948 -66.651,28.349 -102.644,36.716l-48.285,-81.425l-93.689,2.59l-43.656,84.058c-36.36,-6.213 -71.33,-16.778 -104.488,-30.808l8.765,-94.264l-77.321,-52.905l-84.669,42.155c-25.345,-26.025 -47.656,-55.185 -66.554,-86.546l62.52,-71.03l-31.305,-88.281l-93.24,-15.71c-2.387,-17.029 -3.968,-34.293 -4.622,-51.901c-0.591,-19.293 0.117,-38.283 1.775,-56.862l92.225,-20.776l26.6,-89.791l-66.035,-67.512c17.069,-32.396 37.843,-62.44 61.661,-89.7l86.773,37.461l74.467,-56.966l-13.805,-93.593c32.3,-15.879 66.727,-28.1 102.743,-36.305l48.126,81.541l93.7,-2.198l43.903,-83.859c35.274,6.116 69.255,16.301 101.384,29.853l-8.375,94.242l77.472,52.68l84.505,-42.422c25.332,25.951 47.747,54.796 66.583,86.137l-62.102,71.196l31.589,88.18l93.206,15.443c2.633,17.512 4.364,35.398 4.875,53.497Zm-238.579,-188.903c-112.531,-128.138 -307.943,-140.903 -436.12,-28.374c-128.035,112.646 -140.725,307.73 -27.9,436.059c112.508,128.096 307.782,140.697 435.832,28.186c128.177,-112.529 140.743,-307.812 28.188,-435.871Zm-48.173,413.119c-115.5,101.485 -291.638,90.117 -393.118,-25.424c-101.77,-115.752 -90.321,-291.717 25.164,-393.323c115.615,-101.5 291.877,-89.986 393.378,25.593c101.524,115.51 90.19,291.653 -25.424,393.154Zm-44.636,-50.813c87.624,-76.84 96.486,-210.283 19.203,-298.01c-76.872,-87.549 -210.283,-96.117 -297.618,-18.942c-87.701,76.736 -96.213,209.906 -19.496,297.688c77.149,87.879 210.479,96.061 297.911,19.264Z" style="fill:#212126;"/></g></g></svg>