<?xml version="1.0" encoding="UTF-8" standalone="no"?><!DOCTYPE svg PUBLIC "-//W3C//DTD SVG 1.1//EN" "http://www.w3.org/Graphics/SVG/1.1/DTD/svg11.dtd"><svg width="100%" height="100%" viewBox="0 0 4019 937" version="1.1" xmlns="http://www.w3.org/2000/svg" xmlns:xlink="http://www.w3.org/1999/xlink" xml:space="preserve" xmlns:serif="http://www.serif.com/" style="fill-rule:evenodd;clip-rule:evenodd;stroke-linejoin:round;stroke-miterlimit:2;"><g><path d="M1576.93,818.703c-22.485,-0 -37.342,10.975 -37.342,28.24c0,33.193 49.522,23.289 49.522,39.885c-0,5.354 -4.685,8.165 -12.18,8.165c-9.77,-0 -24.225,-5.622 -33.862,-14.054l-9.235,18.337c11.109,9.101 27.17,14.99 42.83,14.99c20.879,0 37.475,-9.904 37.475,-28.642c0,-33.862 -49.521,-24.627 -49.521,-40.822c-0,-4.551 4.149,-6.826 10.306,-6.826c7.629,-0 20.076,4.015 29.98,9.77l8.968,-18.604c-9.637,-6.29 -23.423,-10.439 -36.941,-10.439Z" style="fill:#212126;fill-rule:nonzero;"/><path d="M1703.42,835.031l0,-15.258l-80.171,0l-0,18.872l48.451,0l-50.191,59.56l-0,15.258l82.714,0l0,-18.872l-50.86,0l50.057,-59.56Z" style="fill:#212126;fill-rule:nonzero;"/><path d="M1765.79,883.215l33.996,-63.442l-23.824,0l-22.084,40.822l-22.619,-40.822l-23.824,0l34.665,64.111l-0,29.579l23.69,0l-0,-30.248Z" style="fill:#212126;fill-rule:nonzero;"/><path d="M1808.48,819.773l-0,93.69l45.908,0c22.084,0 36.003,-10.038 36.003,-25.965c0,-12.18 -7.495,-21.415 -19.273,-23.69c9.904,-2.811 16.061,-10.708 16.061,-20.612c-0,-14.321 -13.384,-23.423 -34.398,-23.423l-44.301,0Zm23.69,18.203l19.273,-0c6.96,-0 11.377,3.48 11.377,9.503c-0,6.023 -4.417,9.77 -11.377,9.77l-19.273,0l-0,-19.273Zm-0,36.405l19.273,0c8.834,0 14.321,3.882 14.321,10.172c0,6.692 -5.487,10.574 -14.321,10.574l-19.273,-0l-0,-20.746Z" style="fill:#212126;fill-rule:nonzero;"/><path d="M1952.5,883.215l33.996,-63.442l-23.824,0l-22.084,40.822l-22.619,-40.822l-23.824,0l34.665,64.111l-0,29.579l23.69,0l0,-30.248Z" style="fill:#212126;fill-rule:nonzero;"/><rect x="2028.25" y="805.988" width="17.266" height="122.198" style="fill:#ee994f;fill-rule:nonzero;"/><path d="M2200.24,913.463l0,-93.823l-25.965,-0l-25.43,55.812l-25.43,-55.812l-26.099,-0l-0,93.823l21.281,0l-0,-60.898l22.485,51.529l15.526,0l22.485,-51.529l0.134,60.898l21.013,0Z" style="fill:#212126;fill-rule:nonzero;"/><path d="M2281.35,896.197l6.692,17.266l25.43,0l-39.483,-93.69l-24.494,0l-40.42,93.69l24.493,0l6.826,-17.266l40.956,0Zm-6.96,-18.068l-27.036,-0l13.652,-34.666l13.384,34.666Z" style="fill:#212126;fill-rule:nonzero;"/><path d="M2357.77,818.703c-22.486,-0 -37.342,10.975 -37.342,28.24c-0,33.193 49.522,23.289 49.522,39.885c-0,5.354 -4.685,8.165 -12.18,8.165c-9.77,-0 -24.225,-5.622 -33.862,-14.054l-9.235,18.337c11.109,9.101 27.17,14.99 42.829,14.99c20.88,0 37.476,-9.904 37.476,-28.642c0,-33.862 -49.521,-24.627 -49.521,-40.822c-0,-4.551 4.149,-6.826 10.305,-6.826c7.629,-0 20.077,4.015 29.981,9.77l8.968,-18.604c-9.637,-6.29 -23.423,-10.439 -36.941,-10.439Z" style="fill:#212126;fill-rule:nonzero;"/><path d="M2468.99,913.463l28.509,0l-37.075,-54.875l34.799,-38.815l-27.571,0l-35.87,40.555l-0,-40.555l-23.824,0l-0,93.69l23.824,0l-0,-23.021l12.447,-13.786l24.761,36.807Z" style="fill:#212126;fill-rule:nonzero;"/><path d="M2549.7,818.97c-28.91,0 -50.592,20.211 -50.592,47.514c-0,27.438 21.682,48.05 50.592,48.05c29.044,-0 50.726,-20.746 50.726,-48.05c0,-27.17 -21.682,-47.514 -50.726,-47.514Zm0.268,19.943c14.455,-0 25.965,11.912 25.965,27.705c0,15.794 -11.51,27.973 -25.965,27.973c-14.321,0 -26.501,-12.179 -26.501,-27.973c-0,-15.793 12.046,-27.705 26.501,-27.705Z" style="fill:#212126;fill-rule:nonzero;"/><path d="M2717.01,913.463l30.918,-93.69l-24.36,0l-18.068,68.929l-18.337,-68.929l-23.288,0l-17.935,68.929l-18.337,-68.929l-25.43,0l30.65,93.69l24.627,0l17.667,-64.78l17.4,64.78l24.493,0Z" style="fill:#212126;fill-rule:nonzero;"/><path d="M2842.82,913.463l0,-93.69l-22.218,0l0,57.82l-43.231,-57.82l-21.013,0l-0,93.69l22.351,0l0,-57.686l43.098,57.686l21.013,0Z" style="fill:#212126;fill-rule:nonzero;"/><rect x="2861.55" y="819.773" width="23.824" height="93.69" style="fill:#212126;fill-rule:nonzero;"/><path d="M2948.02,818.97c-28.508,0 -50.057,20.344 -50.057,47.381c0,27.437 21.013,48.183 49.254,48.183c13.786,-0 28.642,-6.826 38.681,-17.132l-13.92,-14.723c-6.558,6.692 -15.66,10.975 -23.556,10.975c-14.857,0 -26.1,-11.912 -26.1,-27.571c0,-15.392 11.243,-27.17 26.1,-27.17c8.298,-0 17.399,4.684 23.556,12.18l13.786,-16.329c-9.369,-9.637 -23.824,-15.794 -37.744,-15.794Z" style="fill:#212126;fill-rule:nonzero;"/><path d="M3070.08,838.511l0,-18.738l-73.345,0l-0,93.69l74.818,0l-0,-18.738l-50.994,0l-0,-18.872l44.703,0l0,-18.738l-44.703,0l-0,-18.604l49.521,0Z" style="fill:#212126;fill-rule:nonzero;"/><rect x="3120.01" y="805.988" width="17.266" height="122.198" style="fill:#ee994f;fill-rule:nonzero;"/><path d="M3273.39,819.773l-23.69,0l0,54.34c0,12.715 -7.629,20.478 -18.872,20.478c-11.376,0 -19.541,-7.763 -19.541,-20.478l0,-54.34l-23.824,0l0,54.34c0,24.761 16.864,40.421 43.231,40.421c26.234,-0 42.696,-15.66 42.696,-40.421l0,-54.34Z" style="fill:#212126;fill-rule:nonzero;"/><path d="M3326.52,818.703c-22.486,-0 -37.342,10.975 -37.342,28.24c-0,33.193 49.521,23.289 49.521,39.885c0,5.354 -4.684,8.165 -12.179,8.165c-9.771,-0 -24.226,-5.622 -33.863,-14.054l-9.235,18.337c11.109,9.101 27.17,14.99 42.83,14.99c20.879,0 37.476,-9.904 37.476,-28.642c-0,-33.862 -49.522,-24.627 -49.522,-40.822c0,-4.551 4.149,-6.826 10.306,-6.826c7.629,-0 20.076,4.015 29.981,9.77l8.967,-18.604c-9.637,-6.29 -23.422,-10.439 -36.94,-10.439Z" style="fill:#212126;fill-rule:nonzero;"/><path d="M3442.83,893.521l-39.752,-0l0,-31.453l23.155,-6.693l-3.881,-14.053l-19.274,5.621l0,-27.17l-23.823,0l-0,33.996l-13.652,4.016l3.881,13.919l9.771,-2.81l-0,44.569l63.575,0l-0,-19.942Z" style="fill:#212126;fill-rule:nonzero;"/><path d="M3538.66,819.773l-23.69,0l-0,54.34c-0,12.715 -7.629,20.478 -18.872,20.478c-11.377,0 -19.541,-7.763 -19.541,-20.478l-0,-54.34l-23.824,0l0,54.34c0,24.761 16.864,40.421 43.231,40.421c26.233,-0 42.696,-15.66 42.696,-40.421l-0,-54.34Z" style="fill:#212126;fill-rule:nonzero;"/><path d="M3618.03,865.815l0,24.226c-5.621,2.81 -11.778,4.55 -16.596,4.55c-15.526,0 -27.438,-12.046 -27.438,-27.973c0,-15.659 11.778,-27.705 27.17,-27.705c8.7,-0 18.203,3.881 25.029,10.172l13.384,-16.195c-9.637,-8.566 -24.359,-13.92 -38.279,-13.92c-29.579,0 -51.663,20.478 -51.663,47.648c-0,27.304 21.549,47.916 50.057,47.916c13.117,-0 28.91,-5.086 38.948,-12.18l0,-36.539l-20.612,0Z" style="fill:#212126;fill-rule:nonzero;"/><rect x="3655.24" y="819.773" width="23.824" height="93.69" style="fill:#212126;fill-rule:nonzero;"/><path d="M3772.75,818.97c-28.508,0 -50.057,20.344 -50.057,47.381c0,27.437 21.013,48.183 49.254,48.183c13.786,-0 28.643,-6.826 38.681,-17.132l-13.92,-14.723c-6.558,6.692 -15.659,10.975 -23.556,10.975c-14.857,0 -26.099,-11.912 -26.099,-27.571c-0,-15.392 11.242,-27.17 26.099,-27.17c8.298,-0 17.399,4.684 23.556,12.18l13.786,-16.329c-9.369,-9.637 -23.824,-15.794 -37.744,-15.794Z" style="fill:#212126;fill-rule:nonzero;"/><path d="M3907.93,913.463l0,-93.69l-22.218,0l0,57.82l-43.231,-57.82l-21.013,0l-0,93.69l22.352,0l-0,-57.686l43.097,57.686l21.013,0Z" style="fill:#212126;fill-rule:nonzero;"/><path d="M3970.57,818.97c-28.508,0 -50.057,20.344 -50.057,47.381c0,27.437 21.014,48.183 49.254,48.183c13.786,-0 28.643,-6.826 38.681,-17.132l-13.92,-14.723c-6.558,6.692 -15.659,10.975 -23.556,10.975c-14.857,0 -26.099,-11.912 -26.099,-27.571c-0,-15.392 11.242,-27.17 26.099,-27.17c8.298,-0 17.399,4.684 23.556,12.18l13.786,-16.329c-9.369,-9.637 -23.824,-15.794 -37.744,-15.794Z" style="fill:#212126;fill-rule:nonzero;"/></g><path d="M1497.74,457.139c0.645,18.617 0.022,37.109 -1.466,55.366l-92.291,20.924l-26.271,90.059l66.422,67.245c-16.933,32.363 -37.649,62.454 -61.475,89.907l-86.865,-37.223l-74.211,57.287l14.075,93.54c-32.28,15.948 -66.65,28.349 -102.643,36.716l-48.286,-81.425l-93.689,2.59l-43.656,84.059c-36.36,-6.214 -71.329,-16.779 -104.487,-30.809l8.764,-94.264l-77.321,-52.905l-84.669,42.155c-25.345,-26.024 -47.656,-55.185 -66.553,-86.546l62.519,-71.03l-31.304,-88.281l-93.241,-15.709c-2.387,-17.03 -3.968,-34.293 -4.622,-51.902c-0.59,-19.293 0.118,-38.283 1.775,-56.862l92.225,-20.776l26.601,-89.79l-66.036,-67.513c17.069,-32.395 37.844,-62.44 61.661,-89.699l86.773,37.46l74.467,-56.965l-13.804,-93.594c32.3,-15.879 66.726,-28.1 102.742,-36.305l48.126,81.541l93.7,-2.197l43.904,-83.86c35.274,6.117 69.254,16.302 101.383,29.853l-8.375,94.242l77.473,52.68l84.504,-42.421c25.333,25.95 47.747,54.796 66.583,86.136l-62.102,71.197l31.589,88.18l93.206,15.443c2.634,17.511 4.365,35.398 4.875,53.496Zm-238.579,-188.903c-112.53,-128.138 -307.942,-140.903 -436.119,-28.374c-128.036,112.646 -140.726,307.73 -27.9,436.059c112.508,128.096 307.781,140.698 435.831,28.186c128.177,-112.528 140.743,-307.811 28.188,-435.871Zm-48.173,413.119c-115.499,101.486 -291.637,90.117 -393.118,-25.423c-101.769,-115.753 -90.321,-291.718 25.165,-393.324c115.614,-101.5 291.876,-89.985 393.377,25.593c101.524,115.511 90.191,291.653 -25.424,393.154Zm-44.636,-50.812c87.625,-76.841 96.486,-210.284 19.203,-298.01c-76.871,-87.55 -210.283,-96.118 -297.617,-18.943c-87.702,76.737 -96.213,209.906 -19.497,297.688c77.149,87.879 210.479,96.061 297.911,19.265Z" style="fill:#363636;"/><path d="M1489.41,448.806c0.645,18.616 0.022,37.109 -1.466,55.366l-92.291,20.923l-26.271,90.059l66.421,67.246c-16.932,32.362 -37.648,62.454 -61.474,89.907l-86.865,-37.224l-74.211,57.287l14.075,93.541c-32.281,15.948 -66.651,28.349 -102.644,36.716l-48.285,-81.425l-93.689,2.59l-43.656,84.058c-36.36,-6.213 -71.33,-16.778 -104.488,-30.808l8.765,-94.264l-77.321,-52.905l-84.669,42.155c-25.345,-26.025 -47.656,-55.185 -66.554,-86.546l62.52,-71.03l-31.305,-88.281l-93.24,-15.71c-2.387,-17.029 -3.968,-34.293 -4.622,-51.901c-0.591,-19.293 0.117,-38.283 1.775,-56.862l92.225,-20.776l26.6,-89.791l-66.035,-67.512c17.069,-32.396 37.843,-62.44 61.661,-89.7l86.773,37.461l74.467,-56.966l-13.804,-93.593c32.299,-15.879 66.726,-28.1 102.742,-36.305l48.126,81.541l93.7,-2.198l43.903,-83.859c35.274,6.116 69.255,16.301 101.384,29.853l-8.375,94.242l77.472,52.68l84.505,-42.422c25.332,25.951 47.747,54.796 66.583,86.137l-62.102,71.196l31.589,88.18l93.206,15.443c2.633,17.512 4.364,35.398 4.875,53.497Zm-238.579,-188.903c-112.531,-128.138 -307.942,-140.903 -436.12,-28.374c-128.035,112.646 -140.725,307.73 -27.9,436.059c112.508,128.096 307.782,140.697 435.832,28.186c128.177,-112.529 140.743,-307.812 28.188,-435.871Zm-48.173,413.119c-115.5,101.485 -291.638,90.117 -393.118,-25.424c-101.77,-115.752 -90.321,-291.717 25.164,-393.323c115.615,-101.5 291.877,-89.986 393.378,25.593c101.524,115.51 90.19,291.653 -25.424,393.154Zm-44.636,-50.813c87.624,-76.84 96.486,-210.283 19.203,-298.01c-76.872,-87.549 -210.283,-96.117 -297.617,-18.942c-87.702,76.736 -96.214,209.906 -19.497,297.688c77.149,87.879 210.479,96.061 297.911,19.264Z" style="fill:#ee994f;"/><g><path d="M339.513,735.619c2.493,4.723 7.396,7.679 12.737,7.679c23.966,-0 91.763,-0 129.536,-0c5.257,-0 10.096,-2.864 12.626,-7.472c2.529,-4.608 2.347,-10.228 -0.475,-14.663c-25.191,-39.586 -77.206,-121.324 -97.362,-152.997c-2.098,-3.298 -2.765,-7.307 -1.849,-11.107c0.916,-3.8 3.338,-7.064 6.708,-9.043c58.454,-34.748 90.306,-94.739 90.306,-175.966c-0,-127.005 -86.299,-198.65 -236.914,-198.65c-0,0 -186.569,0 -240.424,0c-3.819,0 -7.483,1.518 -10.184,4.219c-2.701,2.701 -4.218,6.364 -4.218,10.184c0,79.28 0,461.812 0,541.092c0,7.954 6.448,14.403 14.402,14.403c27.756,-0 88.357,-0 116.112,-0c7.955,-0 14.403,-6.449 14.403,-14.403c-0,-30.462 -0,-101.118 -0,-131.58c-0,-7.955 6.448,-14.403 14.402,-14.403c29.808,0 96.229,0 97.065,0c1.545,0 2.964,0.855 3.685,2.222c8.75,16.574 63.929,121.096 79.444,150.485Zm-180.194,-266.686c-7.954,-0 -14.402,-6.448 -14.402,-14.403c-0,-33.969 -0,-118.779 -0,-152.748c-0,-7.954 6.448,-14.402 14.402,-14.402c29.795,-0 95.507,-0 95.507,-0c62.688,-0 99.324,30.123 99.324,89.555c0,60.246 -36.636,91.998 -99.324,91.998c-0,-0 -65.712,-0 -95.507,-0Z" style="fill:#212126;fill-rule:nonzero;"/><path d="M1548.24,173.4c-7.954,0 -14.402,6.448 -14.402,14.403c-0,79.28 -0,461.812 -0,541.092c-0,3.82 1.517,7.483 4.218,10.184c2.701,2.701 6.365,4.219 10.184,4.219c57.137,-0 264.848,-0 264.848,-0c134.333,-0 219.003,-61.061 219.003,-157.943c0,-61.088 -30.997,-109.999 -82.037,-133.04c-4.81,-2.218 -7.991,-6.923 -8.258,-12.213c-0.267,-5.291 2.424,-10.292 6.986,-12.983c40.043,-23.074 63.77,-63.291 63.77,-111.244c-0,-87.113 -81.414,-142.475 -209.234,-142.475c0,0 -199.238,0 -255.078,0Zm129.701,125.125c-0,-7.954 6.448,-14.402 14.402,-14.402c31.306,0 102.834,0 102.834,0c42.335,0 69.201,21.168 69.201,57.804c0,36.636 -26.866,59.432 -69.201,59.432c-0,0 -71.528,0 -102.834,0c-7.954,0 -14.402,-6.448 -14.402,-14.402l-0,-88.432Zm-0,221.446c-0,-7.954 6.448,-14.402 14.402,-14.402c31.306,-0 102.834,-0 102.834,-0c53.733,0 87.112,23.61 87.112,61.875c0,40.706 -33.379,64.316 -87.112,64.317c-0,-0 -71.528,-0 -102.834,-0c-7.954,-0.001 -14.402,-6.449 -14.402,-14.403c-0,-24.285 -0,-73.102 -0,-97.387Z" style="fill:#212126;fill-rule:nonzero;"/><path d="M2727.62,743.298c3.82,-0 7.483,-1.518 10.184,-4.219c2.701,-2.701 4.218,-6.364 4.218,-10.184c0,-79.355 0,-462.552 0,-541.906c0,-7.955 -6.448,-14.403 -14.402,-14.403c-31.913,0 -107.842,0 -134.276,0c-5.643,0 -10.766,3.296 -13.106,8.431c-19.148,42.025 -104.676,229.737 -137.739,302.301c-2.34,5.135 -7.463,8.431 -13.106,8.431c-5.643,-0 -10.766,-3.296 -13.106,-8.431c-33.063,-72.564 -118.591,-260.276 -137.739,-302.301c-2.34,-5.135 -7.463,-8.431 -13.106,-8.431c-26.548,0 -103.037,0 -135.09,0c-3.82,0 -7.483,1.517 -10.184,4.218c-2.701,2.701 -4.219,6.365 -4.219,10.185l0,541.906c0,3.82 1.518,7.483 4.219,10.184c2.701,2.701 6.364,4.219 10.184,4.219c24.905,-0 75.737,-0 100.643,-0c3.82,-0 7.483,-1.518 10.184,-4.219c2.701,-2.701 4.218,-6.364 4.218,-10.184c0,-46.904 0,-197.401 0,-287.014c0,-6.82 4.784,-12.706 11.461,-14.099c6.676,-1.393 13.415,2.088 16.142,8.339c34.383,78.793 90.437,207.25 105.402,241.545c2.29,5.249 7.473,8.642 13.2,8.642c18.093,-0 57.489,-0 75.582,-0c5.727,-0 10.91,-3.393 13.2,-8.642c14.987,-34.345 71.183,-163.128 105.552,-241.891c2.726,-6.246 9.455,-9.727 16.127,-8.342c6.673,1.385 11.461,7.256 11.476,14.07c0.197,89.588 0.529,240.49 0.632,287.424c0.017,7.942 6.46,14.371 14.402,14.371c24.585,-0 74.44,-0 99.047,-0Z" style="fill:#212126;fill-rule:nonzero;"/><path d="M3225.52,638.274c5.946,-0 11.281,3.653 13.429,9.197c7.712,19.895 25.866,66.734 33.578,86.629c2.148,5.544 7.483,9.198 13.429,9.198c24.597,-0 89.113,-0 123.123,-0c4.826,-0 9.331,-2.417 12,-6.438c2.669,-4.021 3.146,-9.111 1.272,-13.558c-39.018,-92.587 -201.371,-477.829 -228.032,-541.093c-2.249,-5.338 -7.479,-8.809 -13.272,-8.809c-26.92,0 -103.143,0 -129.956,0c-5.748,0 -10.946,3.419 -13.224,8.697c-27.134,62.894 -193.389,448.253 -233.443,541.093c-1.92,4.451 -1.472,9.569 1.191,13.619c2.664,4.05 7.186,6.489 12.034,6.489c32.87,-0 93.63,-0 117.295,-0c5.91,-0 11.22,-3.611 13.393,-9.108c7.857,-19.873 26.464,-66.936 34.32,-86.809c2.173,-5.497 7.484,-9.107 13.394,-9.107c39.838,-0 189.501,-0 229.469,-0Zm-40.034,-129.499c1.71,4.43 1.127,9.418 -1.559,13.334c-2.685,3.915 -7.129,6.256 -11.877,6.256c-31.514,-0 -90.704,-0 -122.306,-0c-4.765,-0 -9.222,-2.357 -11.904,-6.296c-2.682,-3.939 -3.243,-8.95 -1.496,-13.384c14.119,-35.851 44.191,-112.212 61.758,-156.818c2.175,-5.522 7.514,-9.144 13.449,-9.125c5.935,0.02 11.25,3.679 13.387,9.215c17.242,44.656 46.729,121.028 60.548,156.818Z" style="fill:#212126;fill-rule:nonzero;"/><path d="M3819.85,453.503c-3.378,-4.926 -3.365,-11.426 0.033,-16.338c25.129,-36.334 127.355,-184.142 166.797,-241.17c3.046,-4.405 3.397,-10.136 0.91,-14.88c-2.487,-4.743 -7.4,-7.715 -12.756,-7.715c-39.823,0 -111.399,0 -134.943,0c-4.833,0 -9.344,2.424 -12.011,6.454c-15.532,23.472 -69.372,104.83 -93.627,141.481c-2.667,4.03 -7.177,6.454 -12.01,6.454c-4.833,0 -9.344,-2.424 -12.011,-6.454c-24.255,-36.651 -78.094,-118.009 -93.627,-141.481c-2.667,-4.03 -7.178,-6.454 -12.01,-6.454c-23.376,0 -94.063,0 -133.483,0c-5.342,0 -10.246,2.958 -12.739,7.683c-2.492,4.726 -2.164,10.443 0.853,14.852c39.698,58.021 144.087,210.588 169.468,247.684c3.383,4.945 3.352,11.467 -0.078,16.379c-26.711,38.249 -139.955,200.415 -182.019,260.651c-3.073,4.401 -3.444,10.145 -0.963,14.905c2.481,4.759 7.404,7.744 12.771,7.744c39.536,-0 110.049,-0 133.261,-0c4.779,-0 9.247,-2.371 11.926,-6.328c17.01,-25.12 80.138,-118.349 106.725,-157.613c2.679,-3.957 7.147,-6.328 11.926,-6.328c4.778,0 9.246,2.371 11.925,6.328c26.587,39.264 89.716,132.493 106.725,157.613c2.68,3.957 7.147,6.328 11.926,6.328c23.866,-0 97.841,-0 138.43,-0c5.345,-0 10.251,-2.961 12.742,-7.69c2.491,-4.73 2.158,-10.45 -0.865,-14.858c-41.956,-61.179 -156.579,-228.318 -183.276,-267.247Z" style="fill:#212126;fill-rule:nonzero;"/></g></svg>