<?xml version="1.0" encoding="UTF-8" standalone="no"?><!DOCTYPE svg PUBLIC "-//W3C//DTD SVG 1.1//EN" "http://www.w3.org/Graphics/SVG/1.1/DTD/svg11.dtd"><svg width="100%" height="100%" viewBox="0 0 4009 929" version="1.1" xmlns="http://www.w3.org/2000/svg" xmlns:xlink="http://www.w3.org/1999/xlink" xml:space="preserve" xmlns:serif="http://www.serif.com/" style="fill-rule:evenodd;clip-rule:evenodd;stroke-linejoin:round;stroke-miterlimit:2;"><path d="M1576.93,818.703c13.518,-0 27.304,4.149 36.941,10.439l-8.968,18.604c-9.904,-5.755 -22.351,-9.77 -29.98,-9.77c-6.157,-0 -10.306,2.275 -10.306,6.826c-0,16.195 49.521,6.96 49.521,40.822c0,18.738 -16.596,28.642 -37.475,28.642c-15.66,0 -31.721,-5.889 -42.83,-14.99l9.235,-18.337c9.637,8.432 24.092,14.054 33.862,14.054c7.495,-0 12.18,-2.811 12.18,-8.165c-0,-16.596 -49.522,-6.692 -49.522,-39.885c0,-17.265 14.857,-28.24 37.342,-28.24Zm126.481,16.328l-50.057,59.56l50.86,0l0,18.872l-82.714,0l-0,-15.258l50.191,-59.56l-48.451,0l-0,-18.872l80.171,0l0,15.258Zm62.371,48.184l-0,30.248l-23.69,0l-0,-29.579l-34.665,-64.111l23.824,0l22.619,40.822l22.084,-40.822l23.824,0l-33.996,63.442Zm42.696,-63.442l44.301,0c21.014,0 34.398,9.102 34.398,23.423c-0,9.904 -6.157,17.801 -16.061,20.612c11.778,2.275 19.273,11.51 19.273,23.69c0,15.927 -13.919,25.965 -36.003,25.965l-45.908,0l-0,-93.69Zm23.69,54.608l-0,20.746l19.273,-0c8.834,-0 14.321,-3.882 14.321,-10.574c0,-6.29 -5.487,-10.172 -14.321,-10.172l-19.273,0Zm-0,-36.405l-0,19.273l19.273,0c6.96,0 11.377,-3.747 11.377,-9.77c-0,-6.023 -4.417,-9.503 -11.377,-9.503l-19.273,-0Zm120.324,45.239l0,30.248l-23.69,0l-0,-29.579l-34.665,-64.111l23.824,0l22.619,40.822l22.084,-40.822l23.824,0l-33.996,63.442Zm93.021,44.971l-17.266,-0l-0,-122.198l17.266,-0l-0,122.198Zm154.721,-14.723l-21.013,0l-0.134,-60.898l-22.485,51.529l-15.526,0l-22.485,-51.529l-0,60.898l-21.281,0l-0,-93.823l26.099,-0l25.43,55.812l25.43,-55.812l25.965,-0l0,93.823Zm81.109,-17.266l-40.956,0l-6.826,17.266l-24.493,0l40.42,-93.69l24.494,0l39.483,93.69l-25.43,0l-6.692,-17.266Zm-6.96,-18.068l-13.384,-34.666l-13.652,34.666l27.036,-0Zm83.384,-59.426c13.518,-0 27.304,4.149 36.941,10.439l-8.968,18.604c-9.904,-5.755 -22.352,-9.77 -29.981,-9.77c-6.156,-0 -10.305,2.275 -10.305,6.826c-0,16.195 49.521,6.96 49.521,40.822c0,18.738 -16.596,28.642 -37.476,28.642c-15.659,0 -31.72,-5.889 -42.829,-14.99l9.235,-18.337c9.637,8.432 24.092,14.054 33.862,14.054c7.495,-0 12.18,-2.811 12.18,-8.165c-0,-16.596 -49.522,-6.692 -49.522,-39.885c-0,-17.265 14.856,-28.24 37.342,-28.24Zm111.223,94.76l-24.761,-36.807l-12.447,13.786l-0,23.021l-23.824,0l-0,-93.69l23.824,0l-0,40.555l35.87,-40.555l27.571,0l-34.799,38.815l37.075,54.875l-28.509,0Zm80.707,-94.493c29.044,0 50.726,20.344 50.726,47.514c0,27.304 -21.682,48.05 -50.726,48.05c-28.91,-0 -50.592,-20.612 -50.592,-48.05c-0,-27.303 21.682,-47.514 50.592,-47.514Zm0.268,19.943c-14.455,-0 -26.501,11.912 -26.501,27.705c-0,15.794 12.18,27.973 26.501,27.973c14.455,0 25.965,-12.179 25.965,-27.973c0,-15.793 -11.51,-27.705 -25.965,-27.705Zm167.035,74.55l-24.493,0l-17.4,-64.78l-17.667,64.78l-24.627,0l-30.65,-93.69l25.43,0l18.337,68.929l17.935,-68.929l23.288,0l18.337,68.929l18.068,-68.929l24.36,0l-30.918,93.69Zm125.812,0l-21.013,0l-43.098,-57.686l0,57.686l-22.351,0l-0,-93.69l21.013,0l43.231,57.82l0,-57.82l22.218,0l0,93.69Zm42.562,0l-23.824,0l-0,-93.69l23.824,0l-0,93.69Zm62.638,-94.493c13.92,0 28.375,6.157 37.744,15.794l-13.786,16.329c-6.157,-7.496 -15.258,-12.18 -23.556,-12.18c-14.857,-0 -26.1,11.778 -26.1,27.17c0,15.659 11.243,27.571 26.1,27.571c7.896,0 16.998,-4.283 23.556,-10.975l13.92,14.723c-10.039,10.306 -24.895,17.132 -38.681,17.132c-28.241,-0 -49.254,-20.746 -49.254,-48.183c0,-27.037 21.549,-47.381 50.057,-47.381Zm122.064,19.541l-49.521,0l-0,18.604l44.703,0l0,18.738l-44.703,0l-0,18.872l50.994,0l-0,18.738l-74.818,0l-0,-93.69l73.345,0l0,18.738Zm67.189,89.675l-17.265,-0l-0,-122.198l17.265,-0l0,122.198Zm136.118,-108.413l0,54.34c0,24.761 -16.462,40.421 -42.696,40.421c-26.367,-0 -43.231,-15.66 -43.231,-40.421l0,-54.34l23.824,0l0,54.34c0,12.715 8.165,20.478 19.541,20.478c11.243,0 18.872,-7.763 18.872,-20.478l0,-54.34l23.69,0Zm53.136,-1.07c13.518,-0 27.303,4.149 36.94,10.439l-8.967,18.604c-9.905,-5.755 -22.352,-9.77 -29.981,-9.77c-6.157,-0 -10.306,2.275 -10.306,6.826c0,16.195 49.522,6.96 49.522,40.822c-0,18.738 -16.597,28.642 -37.476,28.642c-15.66,0 -31.721,-5.889 -42.83,-14.99l9.235,-18.337c9.637,8.432 24.092,14.054 33.863,14.054c7.495,-0 12.179,-2.811 12.179,-8.165c0,-16.596 -49.521,-6.692 -49.521,-39.885c-0,-17.265 14.856,-28.24 37.342,-28.24Zm116.309,74.818l-0,19.942l-63.575,0l-0,-44.569l-9.771,2.81l-3.881,-13.919l13.652,-4.016l-0,-33.996l23.823,0l0,27.17l19.274,-5.621l3.881,14.053l-23.155,6.693l0,31.453l39.752,-0Zm95.831,-73.748l-0,54.34c-0,24.761 -16.463,40.421 -42.696,40.421c-26.367,-0 -43.231,-15.66 -43.231,-40.421l0,-54.34l23.824,0l-0,54.34c-0,12.715 8.164,20.478 19.541,20.478c11.243,0 18.872,-7.763 18.872,-20.478l-0,-54.34l23.69,0Zm79.368,46.042l20.612,0l0,36.539c-10.038,7.094 -25.831,12.18 -38.948,12.18c-28.508,-0 -50.057,-20.612 -50.057,-47.916c-0,-27.17 22.084,-47.648 51.663,-47.648c13.92,0 28.642,5.354 38.279,13.92l-13.384,16.195c-6.826,-6.291 -16.329,-10.172 -25.029,-10.172c-15.392,-0 -27.17,12.046 -27.17,27.705c0,15.927 11.912,27.973 27.438,27.973c4.818,0 10.975,-1.74 16.596,-4.55l0,-24.226Zm61.033,47.648l-23.824,0l-0,-93.69l23.824,0l-0,93.69Zm93.689,-94.493c13.92,0 28.375,6.157 37.744,15.794l-13.786,16.329c-6.157,-7.496 -15.258,-12.18 -23.556,-12.18c-14.857,-0 -26.099,11.778 -26.099,27.17c-0,15.659 11.242,27.571 26.099,27.571c7.897,0 16.998,-4.283 23.556,-10.975l13.92,14.723c-10.038,10.306 -24.895,17.132 -38.681,17.132c-28.241,-0 -49.254,-20.746 -49.254,-48.183c0,-27.037 21.549,-47.381 50.057,-47.381Zm135.181,94.493l-21.013,0l-43.097,-57.686l-0,57.686l-22.352,0l-0,-93.69l21.013,0l43.231,57.82l0,-57.82l22.218,0l0,93.69Zm62.638,-94.493c13.92,0 28.375,6.157 37.744,15.794l-13.786,16.329c-6.157,-7.496 -15.258,-12.18 -23.556,-12.18c-14.857,-0 -26.099,11.778 -26.099,27.17c-0,15.659 11.242,27.571 26.099,27.571c7.897,0 16.998,-4.283 23.556,-10.975l13.92,14.723c-10.038,10.306 -24.895,17.132 -38.681,17.132c-28.24,-0 -49.254,-20.746 -49.254,-48.183c0,-27.037 21.549,-47.381 50.057,-47.381Zm-2481.17,-370.164c0.645,18.616 0.022,37.109 -1.466,55.366l-92.291,20.923l-26.271,90.059l66.421,67.246c-16.932,32.362 -37.648,62.454 -61.474,89.907l-86.865,-37.224l-74.211,57.287l14.075,93.541c-32.281,15.948 -66.651,28.349 -102.644,36.716l-48.285,-81.425l-93.689,2.59l-43.656,84.058c-36.36,-6.213 -71.33,-16.778 -104.488,-30.808l8.765,-94.264l-77.321,-52.905l-84.669,42.155c-25.345,-26.025 -47.656,-55.185 -66.554,-86.546l62.52,-71.03l-31.305,-88.281l-93.24,-15.71c-2.387,-17.029 -3.968,-34.293 -4.622,-51.901c-0.591,-19.293 0.117,-38.283 1.775,-56.862l92.225,-20.776l26.6,-89.791l-66.035,-67.512c17.069,-32.396 37.843,-62.44 61.661,-89.7l86.773,37.461l74.467,-56.966l-13.804,-93.593c32.299,-15.879 66.726,-28.1 102.742,-36.305l48.126,81.541l93.7,-2.198l43.903,-83.859c35.274,6.116 69.255,16.301 101.384,29.853l-8.375,94.242l77.472,52.68l84.505,-42.422c25.332,25.951 47.747,54.796 66.583,86.137l-62.102,71.196l31.589,88.18l93.206,15.443c2.633,17.512 4.364,35.398 4.875,53.497Zm-238.579,-188.903c-112.531,-128.138 -307.942,-140.903 -436.12,-28.374c-128.035,112.646 -140.725,307.73 -27.9,436.059c112.508,128.096 307.782,140.697 435.832,28.186c128.177,-112.529 140.743,-307.812 28.188,-435.871Zm-48.173,413.119c-115.5,101.485 -291.638,90.117 -393.118,-25.424c-101.77,-115.752 -90.321,-291.717 25.164,-393.323c115.615,-101.5 291.877,-89.986 393.378,25.593c101.524,115.51 90.19,291.653 -25.424,393.154Zm-44.636,-50.813c87.624,-76.84 96.486,-210.283 19.203,-298.01c-76.872,-87.549 -210.283,-96.117 -297.617,-18.942c-87.702,76.736 -96.214,209.906 -19.497,297.688c77.149,87.879 210.479,96.061 297.911,19.264Zm-818.506,113.41l-79.444,-150.485c-0.721,-1.367 -2.14,-2.222 -3.685,-2.222l-97.065,0c-7.954,0 -14.402,6.448 -14.402,14.403l-0,131.58c-0,7.954 -6.448,14.403 -14.403,14.403l-116.112,-0c-7.954,-0 -14.402,-6.449 -14.402,-14.403l0,-541.092c0,-3.82 1.517,-7.483 4.218,-10.184c2.701,-2.701 6.365,-4.219 10.184,-4.219l240.424,0c150.615,0 236.914,71.645 236.914,198.65c-0,81.227 -31.852,141.218 -90.306,175.966c-3.37,1.979 -5.792,5.243 -6.708,9.043c-0.916,3.8 -0.249,7.809 1.849,11.107l97.362,152.997c2.822,4.435 3.004,10.055 0.475,14.663c-2.53,4.608 -7.369,7.472 -12.626,7.472l-129.536,-0c-5.341,-0 -10.244,-2.956 -12.737,-7.679Zm-180.194,-266.686l95.507,-0c62.688,-0 99.324,-31.752 99.324,-91.998c0,-59.432 -36.636,-89.555 -99.324,-89.555l-95.507,-0c-7.954,-0 -14.402,6.448 -14.402,14.402l-0,152.748c-0,7.955 6.448,14.403 14.402,14.403Zm1388.92,-295.533l255.078,0c127.82,0 209.234,55.362 209.234,142.475c-0,47.953 -23.727,88.17 -63.77,111.244c-4.562,2.691 -7.253,7.692 -6.986,12.983c0.267,5.29 3.448,9.995 8.258,12.213c51.04,23.041 82.037,71.952 82.037,133.04c0,96.882 -84.67,157.943 -219.003,157.943l-264.848,-0c-3.819,-0 -7.483,-1.518 -10.184,-4.219c-2.701,-2.701 -4.218,-6.364 -4.218,-10.184l-0,-541.092c-0,-7.955 6.448,-14.403 14.402,-14.403Zm129.701,125.125l-0,88.432c-0,7.954 6.448,14.402 14.402,14.402l102.834,0c42.335,0 69.201,-22.796 69.201,-59.432c0,-36.636 -26.866,-57.804 -69.201,-57.804l-102.834,0c-7.954,0 -14.402,6.448 -14.402,14.402Zm-0,221.446l-0,97.387c-0,7.954 6.448,14.402 14.402,14.403l102.834,-0c53.733,-0.001 87.112,-23.611 87.112,-64.317c0,-38.265 -33.379,-61.875 -87.112,-61.875l-102.834,-0c-7.954,-0 -14.402,6.448 -14.402,14.402Zm1049.68,223.327l-99.047,-0c-7.942,-0 -14.385,-6.429 -14.402,-14.371l-0.632,-287.424c-0.015,-6.814 -4.803,-12.685 -11.476,-14.07c-6.672,-1.385 -13.401,2.096 -16.127,8.342l-105.552,241.891c-2.29,5.249 -7.473,8.642 -13.2,8.642l-75.582,-0c-5.727,-0 -10.91,-3.393 -13.2,-8.642l-105.402,-241.545c-2.727,-6.251 -9.466,-9.732 -16.142,-8.339c-6.677,1.393 -11.461,7.279 -11.461,14.099l0,287.014c0,3.82 -1.517,7.483 -4.218,10.184c-2.701,2.701 -6.364,4.219 -10.184,4.219l-100.643,-0c-3.82,-0 -7.483,-1.518 -10.184,-4.219c-2.701,-2.701 -4.219,-6.364 -4.219,-10.184l0,-541.906c0,-3.82 1.518,-7.484 4.219,-10.185c2.701,-2.701 6.364,-4.218 10.184,-4.218l135.09,0c5.643,0 10.766,3.296 13.106,8.431l137.739,302.301c2.34,5.135 7.463,8.431 13.106,8.431c5.643,-0 10.766,-3.296 13.106,-8.431l137.739,-302.301c2.34,-5.135 7.463,-8.431 13.106,-8.431l134.276,0c7.954,0 14.402,6.448 14.402,14.403l0,541.906c0,3.82 -1.517,7.483 -4.218,10.184c-2.701,2.701 -6.364,4.219 -10.184,4.219Zm497.906,-105.024l-229.469,-0c-5.91,-0 -11.221,3.61 -13.394,9.107l-34.32,86.809c-2.173,5.497 -7.483,9.108 -13.393,9.108l-117.295,-0c-4.848,-0 -9.37,-2.439 -12.034,-6.489c-2.663,-4.05 -3.111,-9.168 -1.191,-13.619l233.443,-541.093c2.278,-5.278 7.476,-8.697 13.224,-8.697l129.956,0c5.793,0 11.023,3.471 13.272,8.809l228.032,541.093c1.874,4.447 1.397,9.537 -1.272,13.558c-2.669,4.021 -7.174,6.438 -12,6.438l-123.123,-0c-5.946,-0 -11.281,-3.654 -13.429,-9.198l-33.578,-86.629c-2.148,-5.544 -7.483,-9.197 -13.429,-9.197Zm-40.034,-129.499l-60.548,-156.818c-2.137,-5.536 -7.452,-9.195 -13.387,-9.215c-5.935,-0.019 -11.274,3.603 -13.449,9.125l-61.758,156.818c-1.747,4.434 -1.186,9.445 1.496,13.384c2.682,3.939 7.139,6.296 11.904,6.296l122.306,-0c4.748,-0 9.192,-2.341 11.877,-6.256c2.686,-3.916 3.269,-8.904 1.559,-13.334Zm634.361,-55.272l183.276,267.247c3.023,4.408 3.356,10.128 0.865,14.858c-2.491,4.729 -7.397,7.69 -12.742,7.69l-138.43,-0c-4.779,-0 -9.246,-2.371 -11.926,-6.328l-106.725,-157.613c-2.679,-3.957 -7.147,-6.328 -11.925,-6.328c-4.779,0 -9.247,2.371 -11.926,6.328l-106.725,157.613c-2.679,3.957 -7.147,6.328 -11.926,6.328l-133.261,-0c-5.367,-0 -10.29,-2.985 -12.771,-7.744c-2.481,-4.76 -2.11,-10.504 0.963,-14.905l182.019,-260.651c3.43,-4.912 3.461,-11.434 0.078,-16.379l-169.468,-247.684c-3.017,-4.409 -3.345,-10.126 -0.853,-14.852c2.493,-4.725 7.397,-7.683 12.739,-7.683l133.483,0c4.832,0 9.343,2.424 12.01,6.454l93.627,141.481c2.667,4.03 7.178,6.454 12.011,6.454c4.833,0 9.343,-2.424 12.01,-6.454l93.627,-141.481c2.667,-4.03 7.178,-6.454 12.011,-6.454l134.943,0c5.356,0 10.269,2.972 12.756,7.715c2.487,4.744 2.136,10.475 -0.91,14.88l-166.797,241.17c-3.398,4.912 -3.411,11.412 -0.033,16.338Z" style="fill:#212126;"/></svg>